<?xml version="1.0" encoding="UTF-8" standalone="no"?>
<svg
   xmlns:dc="http://purl.org/dc/elements/1.1/"
   xmlns:cc="http://creativecommons.org/ns#"
   xmlns:rdf="http://www.w3.org/1999/02/22-rdf-syntax-ns#"
   xmlns:svg="http://www.w3.org/2000/svg"
   xmlns="http://www.w3.org/2000/svg"
   xmlns:sodipodi="http://sodipodi.sourceforge.net/DTD/sodipodi-0.dtd"
   xmlns:inkscape="http://www.inkscape.org/namespaces/inkscape"
   version="1.1"
   id="svg2"
   xml:space="preserve"
   width="1056"
   height="816"
   viewBox="0 0 1056 816"
   sodipodi:docname="logo belys bakery.ai"><metadata
     id="metadata8"><rdf:RDF><cc:Work
         rdf:about=""><dc:format>image/svg+xml</dc:format><dc:type
           rdf:resource="http://purl.org/dc/dcmitype/StillImage" /></cc:Work></rdf:RDF></metadata><defs
     id="defs6"><clipPath
       clipPathUnits="userSpaceOnUse"
       id="clipPath18"><path
         d="M 0,612 H 792 V 0 H 0 Z"
         id="path16" /></clipPath></defs><sodipodi:namedview
     pagecolor="#ffffff"
     bordercolor="#666666"
     borderopacity="1"
     objecttolerance="10"
     gridtolerance="10"
     guidetolerance="10"
     inkscape:pageopacity="0"
     inkscape:pageshadow="2"
     inkscape:window-width="640"
     inkscape:window-height="480"
     id="namedview4" /><g
     id="g10"
     inkscape:groupmode="layer"
     inkscape:label="logo belys bakery"
     transform="matrix(1.3333333,0,0,-1.3333333,0,816)"><g
       id="g12"><g
         id="g14"
         clip-path="url(#clipPath18)"><g
           id="g20"
           transform="translate(140.2646,210.6719)"><path
             d="m 0,0 c 3.331,-0.863 6.46,-1.294 9.387,-1.294 8.154,0 14.411,2.345 18.775,7.035 4.363,4.692 6.546,11.583 6.546,20.679 0,5.927 -0.991,10.777 -2.973,14.548 -1.98,3.769 -4.707,6.574 -8.181,8.418 -3.473,1.842 -8.425,2.762 -14.855,2.762 L 0,52.063 V 49.817 L -0.172,27.455 0,4.835 Z m -0.259,61.387 h 4.49 c 9.727,0 16.562,1.754 20.504,5.266 3.943,3.509 5.914,9.007 5.914,16.49 0,6.562 -1.596,11.398 -4.79,14.505 -3.194,3.108 -8.449,4.663 -15.757,4.663 -2.707,0 -6.015,-0.231 -9.929,-0.692 C -0.172,83.949 -0.345,73.128 -0.345,69.157 Z M -33.412,-9.841 v 4.057 c 3.28,1.956 5.784,3.741 7.511,5.352 0.691,7.943 1.036,25.498 1.036,52.666 0,19.686 -0.289,33.614 -0.863,41.787 -0.289,4.432 -0.893,7.022 -1.814,7.77 -1.266,1.152 -5.642,1.9 -13.123,2.245 v 7.253 l 16.578,-0.345 12.691,-0.259 c 3.854,0 9.554,0.1 17.094,0.303 7.309,0.2 12.547,0.301 15.715,0.301 12.778,0 21.928,-2.135 27.453,-6.4 5.528,-4.267 8.29,-10.096 8.29,-17.485 0,-7.618 -2.73,-13.833 -8.191,-18.644 C 43.506,63.949 35.804,60.513 25.863,58.45 v -0.69 c 10.23,-1.037 17.416,-2.592 21.555,-4.666 4.139,-2.077 7.473,-5.305 10.001,-9.685 2.53,-4.38 3.794,-9.365 3.794,-14.955 0,-6.859 -2.087,-13.341 -6.259,-19.45 C 50.78,2.895 45.255,-1.773 38.378,-5.002 31.499,-8.228 21.814,-9.841 9.325,-9.841 c -2.475,0 -6.189,0.101 -11.138,0.301 -4.605,0.203 -8.375,0.303 -11.31,0.303 -3.28,0 -10.045,-0.201 -20.289,-0.604"
             style="fill:#2c3343;fill-opacity:1;fill-rule:nonzero;stroke:none"
             id="path22" /></g><g
           id="g24"
           transform="translate(223.4082,200.8311)"><path
             d="m 0,0 v 4.66 c 3.049,1.383 5.84,2.993 8.374,4.835 1.151,8.981 1.727,27.858 1.727,56.639 0,19.626 -0.203,32.634 -0.603,39.024 -0.173,3.394 -0.765,5.539 -1.772,6.432 -1.007,0.89 -5.281,1.653 -12.82,2.287 v 7.252 c 13.57,-0.517 24.296,-0.776 32.174,-0.776 l 47.53,0.776 c 5,0 9.514,-0.202 13.538,-0.609 l 0.606,-0.959 c -1.268,-6.334 -2.186,-14.762 -2.76,-25.281 h -6.821 c -0.289,8.402 -0.622,12.892 -0.995,13.468 -0.374,0.574 -1.682,1.121 -3.928,1.641 -4.78,1.035 -12.086,1.553 -21.929,1.553 -4.835,0 -10.477,-0.203 -16.923,-0.604 -0.748,-17.785 -1.18,-31.945 -1.296,-42.479 6.159,-0.403 11.943,-0.603 17.356,-0.603 7.997,0 12.804,0.259 14.417,0.776 0.979,0.345 1.669,1.18 2.071,2.504 0.349,1.037 0.75,4.662 1.211,10.88 h 7.424 c -0.289,-9.751 -0.43,-16.097 -0.43,-19.038 l 0.43,-19.471 h -7.424 c -0.405,7.582 -0.923,11.954 -1.556,13.112 -0.346,0.692 -1.12,1.185 -2.332,1.474 -2.877,0.638 -9.353,0.957 -19.424,0.957 -3.166,0 -6.88,-0.203 -11.137,-0.605 -0.116,-3.04 -0.172,-6.136 -0.172,-9.291 0,-16.402 0.286,-29.019 0.862,-37.849 l 17.127,-0.259 c 9.747,0 18.659,0.518 26.732,1.553 1.44,5.321 2.821,11.366 4.145,18.131 h 7.166 C 89.244,19.88 88.466,10.039 88.237,0.604 82.997,0.2 77.961,0 73.126,0 69.96,0 63.716,0.101 54.392,0.301 45.7,0.504 37.699,0.604 30.391,0.604 20.776,0.604 10.647,0.403 0,0"
             style="fill:#2c3343;fill-opacity:1;fill-rule:nonzero;stroke:none"
             id="path26" /></g><g
           id="g28"
           transform="translate(331.2441,200.8311)"><path
             d="m 0,0 v 4.488 c 3.164,1.496 6.157,3.252 8.978,5.266 0.749,15.599 1.124,31.859 1.124,48.782 0,13.296 -0.145,25.843 -0.434,37.642 -0.172,8.404 -0.576,13.239 -1.208,14.505 -0.289,0.748 -0.878,1.308 -1.769,1.683 -0.893,0.375 -5.082,0.877 -12.563,1.511 v 7.252 c 11.108,-0.288 21.413,-0.431 30.908,-0.431 9.209,0 17.93,0.143 26.162,0.431 v -7.252 c -7.903,-0.518 -12.455,-1.208 -13.657,-2.07 -0.744,-0.52 -1.274,-1.569 -1.589,-3.152 -0.315,-1.585 -0.557,-10.894 -0.73,-27.931 L 34.706,38.679 c 0,-7.887 0.201,-17.009 0.606,-27.369 7.51,-0.404 13.071,-0.605 16.684,-0.605 10.836,0 19.95,0.863 27.348,2.59 1.524,5.188 3.021,11.376 4.489,18.562 h 7.598 C 90.131,23.463 88.981,13.047 87.977,0.604 82.514,0.2 77.483,0 72.884,0 L 41.66,0.403 27.687,0.604 C 21.246,0.66 12.016,0.459 0,0"
             style="fill:#2c3343;fill-opacity:1;fill-rule:nonzero;stroke:none"
             id="path30" /></g><g
           id="g32"
           transform="translate(462.0439,200.8311)"><path
             d="m 0,0 v 7.251 c 5.895,0 9.987,0.52 12.278,1.555 1.372,0.632 2.261,1.956 2.66,3.971 0.117,0.575 0.374,6.186 0.775,16.835 l 0.087,6.304 c 0,7.771 -0.376,12.633 -1.124,14.59 -1.266,3.223 -5.697,10.863 -13.295,22.923 -7.599,12.057 -13.412,20.675 -17.441,25.85 -4.029,5.175 -7.425,8.573 -10.188,10.192 -0.979,0.578 -2.245,0.867 -3.798,0.867 l -4.144,-0.172 v 6.821 c 9.576,1.643 19.035,3.629 28.38,5.956 3.057,-1.44 5.595,-3.137 7.614,-5.094 2.923,-2.935 6.979,-8.677 12.168,-17.223 C 19.16,92.077 25.757,79.744 33.758,63.63 l 7.08,12.07 c 6.443,10.918 14.936,26.061 25.469,45.429 h 14.072 v -4.313 C 77.327,113.193 71.659,104.909 63.372,91.969 50.363,71.611 43.11,59.676 41.614,56.167 40.693,53.924 40.231,49.466 40.231,42.795 c 0,-13.518 0.29,-23.035 0.866,-28.557 0.286,-2.93 1.049,-4.772 2.287,-5.521 1.237,-0.746 5.741,-1.236 13.512,-1.466 V 0 C 48.505,0.403 39.969,0.604 31.292,0.604 21.752,0.604 11.319,0.403 0,0"
             style="fill:#2c3343;fill-opacity:1;fill-rule:nonzero;stroke:none"
             id="path34" /></g><g
           id="g36"
           transform="translate(586.9736,329.2993)"><path
             d="m 0,0 2.849,-2.59 c -6.332,-12.204 -10.951,-20.851 -13.856,-25.945 -2.908,-5.093 -6.634,-11.18 -11.18,-18.258 -3.399,-1.555 -7.37,-3.166 -11.916,-4.835 l -2.762,2.675 c 7.194,14.562 11.684,28.951 13.468,43.169 C -13.727,-4.173 -5.929,-2.245 0,0"
             style="fill:#2c3343;fill-opacity:1;fill-rule:nonzero;stroke:none"
             id="path38" /></g><g
           id="g40"
           transform="translate(606.918,237.3252)"><path
             d="m 0,0 h 7.598 c 0.055,-8.513 0.331,-13.501 0.82,-14.967 0.487,-1.467 2.143,-3.392 4.964,-5.78 2.818,-2.386 6.475,-4.327 10.964,-5.822 4.49,-1.494 9.094,-2.242 13.815,-2.242 8.115,0 14.604,2.156 19.469,6.469 4.862,4.314 7.294,9.69 7.294,16.132 0,5.925 -1.611,10.467 -4.833,13.631 -3.282,3.162 -9.497,5.404 -18.65,6.728 -13.585,1.958 -22.749,4.087 -27.498,6.393 -4.749,2.303 -8.49,5.758 -11.224,10.366 -2.736,4.607 -4.102,10.134 -4.102,16.583 0,10.826 3.811,19.997 11.428,27.512 7.618,7.516 19.794,11.273 36.526,11.273 6.554,0 12.376,-0.489 17.464,-1.468 5.09,-0.981 10.193,-2.594 15.31,-4.841 l 0.861,-2.074 C 79.285,74.261 78.637,70.977 78.264,68.04 77.889,65.101 77.56,60.03 77.271,52.828 h -7.425 c -0.289,8.846 -0.721,13.814 -1.294,14.905 -1.094,1.895 -3.872,3.892 -8.332,5.988 -4.462,2.097 -9.571,3.144 -15.324,3.144 -7.887,0 -14.001,-1.912 -18.347,-5.738 -4.348,-3.823 -6.519,-8.755 -6.519,-14.792 0,-3.682 0.891,-6.89 2.677,-9.62 1.783,-2.733 4.272,-4.744 7.467,-6.038 3.194,-1.294 10.059,-2.776 20.592,-4.443 9.554,-1.438 16.028,-2.848 19.424,-4.226 5.584,-2.245 9.815,-5.666 12.692,-10.269 2.879,-4.602 4.317,-10.41 4.317,-17.426 0,-12.196 -4.662,-22.334 -13.985,-30.415 -9.325,-8.079 -22.074,-12.12 -38.247,-12.12 -7.196,0 -13.729,0.691 -19.599,2.071 -5.871,1.38 -11.945,3.651 -18.217,6.817 1.036,4.024 1.725,7.678 2.073,10.956 C -0.317,-13.834 -0.059,-7.708 0,0"
             style="fill:#2c3343;fill-opacity:1;fill-rule:nonzero;stroke:none"
             id="path42" /></g><g
           id="g44"
           transform="translate(423.3633,506.6792)"><path
             d="m 0,0 h 0.284 c 3.531,0 6.394,2.863 6.394,6.394 v 27.564 c 0,3.532 -2.863,6.395 -6.394,6.395 H 0 c -3.531,0 -6.395,-2.863 -6.395,-6.395 V 6.394 C -6.395,2.863 -3.531,0 0,0 m -53.293,0 h 0.284 c 3.531,0 6.394,2.863 6.394,6.394 v 27.564 c 0,3.532 -2.863,6.395 -6.394,6.395 h -0.284 c -3.531,0 -6.394,-2.863 -6.394,-6.395 V 6.394 C -59.687,2.863 -56.824,0 -53.293,0 m 26.647,-12.808 h 0.284 c 3.531,0 6.393,2.863 6.393,6.394 v 27.565 c 0,3.532 -2.862,6.394 -6.393,6.394 h -0.284 c -3.532,0 -6.395,-2.862 -6.395,-6.394 V -6.414 c 0,-3.531 2.863,-6.394 6.395,-6.394 m 32.87,-90.544 -21.62,-10.85 c -1.806,-0.906 -3.934,0.409 -3.931,2.429 l 0.022,19.593 c 0.002,1.941 1.099,3.716 2.835,4.586 l 22,11.028 c 12.795,6.429 19.255,5.2 19.223,-3.97 0,-9.013 -6.177,-16.608 -18.529,-22.816 m -25.466,59.132 c 0.003,1.943 1.1,3.718 2.837,4.587 L 2.6,-30.117 c 9.611,4.853 16.985,4.979 16.954,-4.317 0,-8.855 -6.177,-16.449 -18.656,-22.72 l -16.229,-8.165 c -1.806,-0.909 -3.936,0.405 -3.934,2.427 z m -39.991,-59.132 c -12.352,6.208 -18.529,13.803 -18.529,22.816 -0.032,9.17 6.429,10.399 19.222,3.97 l 22.001,-11.028 c 1.736,-0.87 2.832,-2.645 2.835,-4.586 l 0.022,-19.593 c 0.003,-2.02 -2.125,-3.335 -3.93,-2.429 z m 3.624,73.235 19.005,-9.516 c 1.737,-0.869 2.834,-2.644 2.837,-4.587 l 0.022,-18.672 c 0.003,-2.022 -2.127,-3.336 -3.933,-2.427 l -16.229,8.165 c -12.479,6.271 -18.656,13.865 -18.656,22.72 -0.031,9.296 7.343,9.17 16.954,4.317 m 82.505,-22.972 v 0.315 c 10.998,11.407 16.576,22.909 16.607,34.222 0,10.242 -3.75,16.292 -11.124,18.152 C 25.037,1.49 16.308,-0.085 5.94,-5.316 l -29.136,-14.627 c -2.081,-1.045 -4.535,-1.045 -6.617,0 l -29.136,14.627 c -10.368,5.231 -19.097,6.806 -26.439,4.916 -7.374,-1.86 -11.124,-7.91 -11.124,-18.152 0.032,-11.313 5.609,-22.815 16.607,-34.222 v -0.315 c -14.59,1.733 -21.649,-3.246 -21.617,-18.75 0.031,-24.706 21.397,-44.275 42.005,-54.642 l 25.962,-13.033 v -10.763 c 0,-3.894 3.157,-7.051 7.051,-7.051 3.894,0 7.05,3.157 7.05,7.051 v 10.763 l 25.962,13.033 c 20.608,10.367 41.973,29.936 42.006,54.642 0.031,15.504 -7.028,20.483 -21.618,18.75"
             style="fill:#ccb568;fill-opacity:1;fill-rule:nonzero;stroke:none"
             id="path46" /></g><g
           id="g48"
           transform="translate(210.6865,145.6934)"><path
             d="m 0,0 v -15.828 h 4.002 c 2.747,0 4.727,0.108 5.943,0.327 1.214,0.217 2.187,0.592 2.919,1.126 0.888,0.632 1.589,1.513 2.104,2.638 0.514,1.126 0.771,2.372 0.771,3.736 0,1.579 -0.307,2.953 -0.919,4.118 -0.614,1.166 -1.503,2.075 -2.668,2.727 -0.693,0.416 -1.491,0.713 -2.4,0.888 C 8.843,-0.089 7.429,0 5.513,0 H 4.002 Z M 0,18.584 V 4.061 h 4.002 c 3.676,0 6.264,0.533 7.765,1.6 1.502,1.068 2.253,2.865 2.253,5.393 0,2.787 -0.697,4.739 -2.091,5.854 -1.392,1.115 -4.034,1.676 -7.927,1.676 z m -5.038,-38.916 v 43.39 h 9.04 c 3.18,0 5.527,-0.162 7.038,-0.488 1.513,-0.327 2.811,-0.884 3.898,-1.675 1.383,-1.028 2.456,-2.347 3.216,-3.957 0.761,-1.611 1.142,-3.374 1.142,-5.29 0,-2.294 -0.55,-4.21 -1.645,-5.75 -1.098,-1.541 -2.693,-2.618 -4.787,-3.23 2.568,-0.396 4.598,-1.547 6.091,-3.453 1.49,-1.907 2.237,-4.314 2.237,-7.216 0,-1.739 -0.317,-3.401 -0.949,-4.979 -0.632,-1.582 -1.511,-2.936 -2.639,-4.061 -1.223,-1.206 -2.736,-2.057 -4.534,-2.551 -1.797,-0.493 -4.82,-0.74 -9.068,-0.74 z"
             style="fill:#ccb568;fill-opacity:1;fill-rule:nonzero;stroke:none"
             id="path50" /></g><g
           id="g52"
           transform="translate(289.9033,159.0605)"><path
             d="M 0,0 -6.906,-15.976 H 6.906 Z M 0,11.41 19.74,-33.699 H 14.138 L 8.506,-20.392 H -8.446 l -5.632,-13.307 h -5.601 z"
             style="fill:#ccb568;fill-opacity:1;fill-rule:nonzero;stroke:none"
             id="path54" /></g><g
           id="g56"
           transform="translate(350.5386,125.3613)"><path
             d="M 0,0 V 43.39 H 5.098 V 24.096 L 23.325,43.39 H 29.49 L 10.878,23.858 31.328,0 H 24.659 L 5.098,23.355 V 0 Z"
             style="fill:#ccb568;fill-opacity:1;fill-rule:nonzero;stroke:none"
             id="path58" /></g><g
           id="g60"
           transform="translate(422.8193,125.3613)"><path
             d="M 0,0 V 43.39 H 22.882 V 38.679 H 5.158 V 26.23 H 22.882 V 21.429 H 5.158 V 4.802 H 22.882 V 0 Z"
             style="fill:#ccb568;fill-opacity:1;fill-rule:nonzero;stroke:none"
             id="path62" /></g><g
           id="g64"
           transform="translate(495.8994,164.3955)"><path
             d="m 0,0 v -14.523 h 3.942 c 4.031,0 6.73,0.519 8.092,1.556 1.364,1.037 2.046,2.849 2.046,5.44 0,2.784 -0.702,4.736 -2.104,5.851 C 10.571,-0.56 7.895,0 3.942,0 Z M -5.037,-39.034 V 4.355 H 5.158 c 2.905,0 5.034,-0.162 6.386,-0.487 1.354,-0.327 2.544,-0.885 3.573,-1.676 1.284,-1.006 2.281,-2.355 2.993,-4.044 0.711,-1.689 1.066,-3.563 1.066,-5.618 0,-3.556 -0.991,-6.259 -2.978,-8.105 -1.985,-1.848 -4.894,-2.773 -8.728,-2.773 H 6.551 L 23.118,-39.034 H 16.567 L 0.742,-18.348 H 0 v -20.686 z"
             style="fill:#ccb568;fill-opacity:1;fill-rule:nonzero;stroke:none"
             id="path66" /></g><g
           id="g68"
           transform="translate(568.2412,125.3613)"><path
             d="M 0,0 V 19.858 L -14.7,43.39 h 5.957 L 2.608,24.571 13.899,43.39 h 5.929 L 5.156,19.858 V 0 Z"
             style="fill:#ccb568;fill-opacity:1;fill-rule:nonzero;stroke:none"
             id="path70" /></g><path
           d="m 692.542,144.928 h -84.109 v 5.076 h 84.109 z"
           style="fill:#ccb568;fill-opacity:1;fill-rule:nonzero;stroke:none"
           id="path72" /><path
           d="m 181.992,144.928 h -84.11 v 5.076 h 84.11 z"
           style="fill:#ccb568;fill-opacity:1;fill-rule:nonzero;stroke:none"
           id="path74" /></g></g></g></svg>
